<svg xmlns="http://www.w3.org/2000/svg" width="300" height="140" viewBox="0 0 300 140" version="1.1"><path d="M 0.463 1.241 C 0.199 1.933, 0.099 33.100, 0.241 70.500 L 0.500 138.500 51.257 138.759 L 102.014 139.018 101.757 69.759 L 101.500 0.500 51.222 0.241 C 11.533 0.036, 0.843 0.247, 0.463 1.241 M 103.460 2.250 C 103.197 2.938, 103.099 34.100, 103.241 71.500 L 103.500 139.500 197.750 139.755 L 292 140.010 292 109.706 L 292 79.402 295.500 79.810 C 297.425 80.035, 299 79.886, 299 79.479 C 299 79.072, 297.454 76.586, 295.564 73.956 L 292.127 69.173 295.564 64.340 C 297.454 61.681, 299 59.167, 299 58.753 C 299 57.542, 294.512 57.888, 293.200 59.200 C 292.267 60.133, 292 53.800, 292 30.700 L 292 1 197.969 1 C 123.665 1, 103.837 1.262, 103.460 2.250 M 7 70 L 7 133 51 133 L 95 133 95 70 L 95 7 51 7 L 7 7 7 70 M 126.500 60.161 C 119.043 64.261, 119.149 75.029, 126.684 78.883 C 132.555 81.885, 141 77.576, 141 71.577 C 141 69.151, 140.706 69, 136 69 C 132.222 69, 131 69.367, 131 70.500 C 131 71.500, 132 72, 134 72 C 137.440 72, 137.783 72.981, 135.171 75.345 C 130.968 79.149, 125 75.719, 125 69.500 C 125 63.460, 130.953 59.838, 134.944 63.449 C 136.051 64.451, 137.002 64.599, 138.023 63.929 C 139.268 63.111, 139.130 62.649, 137.139 60.980 C 134.556 58.813, 129.639 58.435, 126.500 60.161 M 157.775 60.559 C 154.323 62.432, 153 64.910, 153 69.500 C 153 74.176, 154.350 76.612, 157.980 78.490 C 162.535 80.845, 166.537 80.385, 170.234 77.082 C 173.038 74.577, 173.500 73.504, 173.500 69.500 C 173.500 65.496, 173.038 64.423, 170.234 61.918 C 166.551 58.627, 162.208 58.153, 157.775 60.559 M 192.357 59.940 C 186.704 62.356, 185.072 71.647, 189.413 76.694 C 191.467 79.081, 192.582 79.500, 196.891 79.500 C 201.092 79.500, 202.427 79.028, 204.727 76.727 C 208.575 72.880, 208.657 66.202, 204.903 62.448 C 202.062 59.607, 195.980 58.392, 192.357 59.940 M 220 60.500 C 220 61.500, 221 62, 223 62 L 226 62 226 71 C 226 79.274, 226.158 80, 227.961 80 C 229.738 80, 229.949 79.177, 230.211 71.250 L 230.500 62.500 233.250 62.539 C 235.240 62.568, 236 62.084, 236 60.789 C 236 59.219, 235.020 59, 228 59 C 221.556 59, 220 59.292, 220 60.500 M 254.310 60.750 C 253.966 61.712, 252.806 64.750, 251.733 67.500 C 246.901 79.888, 246.878 80, 249.138 80 C 250.346 80, 251.402 79.179, 251.710 78 C 252.490 75.016, 261.161 75.104, 263.161 78.115 C 263.933 79.279, 265.289 80.066, 266.173 79.865 C 267.538 79.555, 267.167 77.948, 263.726 69.250 C 260.177 60.280, 259.375 59, 257.304 59 C 255.955 59, 254.668 59.753, 254.310 60.750 M 282.481 63.974 L 286.132 68.948 283.236 73.224 C 278.704 79.916, 278.675 80, 280.927 80 C 282.205 80, 283.966 78.498, 285.624 75.992 C 287.719 72.826, 288.562 72.222, 289.638 73.115 C 290.759 74.045, 290.997 73.293, 290.985 68.872 C 290.973 64.933, 290.700 63.900, 289.961 65 C 289.114 66.260, 288.558 66.021, 286.481 63.500 C 285.122 61.850, 284.008 60.163, 284.005 59.750 C 284.002 59.337, 282.837 59, 281.415 59 L 278.830 59 282.481 63.974 M 159.011 63.790 C 154.167 67.713, 157.278 77, 163.436 77 C 169.170 77, 172.058 68.282, 167.686 64.174 C 164.873 61.532, 161.959 61.403, 159.011 63.790 M 192.911 63.871 C 188.119 67.751, 191.110 77, 197.156 77 C 199.860 77, 204 72.572, 204 69.680 C 204 66.339, 200.349 62, 197.538 62 C 196.264 62, 194.182 62.842, 192.911 63.871 M 256.131 65.294 C 255.518 66.831, 254.739 69.193, 254.400 70.544 C 253.829 72.818, 254.055 73, 257.459 73 C 261.476 73, 261.515 72.718, 258.499 65.500 L 257.246 62.500 256.131 65.294" stroke="none" fill="#040404" fill-rule="evenodd"/><path d="M 55.882 22.381 C 41.420 27.549, 26.381 47.755, 22.872 66.732 C 20.852 77.661, 25.020 85.933, 34.341 89.493 C 39.883 91.609, 45.402 90.333, 50.704 85.708 C 52.727 83.944, 54.107 83.175, 53.771 84 C 53.436 84.825, 51.482 89.324, 49.430 93.999 C 47.377 98.673, 45.491 104.337, 45.237 106.586 C 44.839 110.118, 45.221 111.183, 48.037 114.390 C 50.488 117.181, 51.943 118.029, 53.892 117.802 C 56.134 117.541, 56.576 116.890, 57.157 113 C 57.526 110.525, 61.292 100.400, 65.525 90.500 C 74.533 69.434, 75.105 66.860, 71.836 62.094 C 68.518 57.256, 66.107 55.997, 64.647 58.339 C 54.360 74.834, 46.294 84.410, 41.737 85.539 C 35.224 87.152, 34.324 80.812, 39.056 66.648 C 46.173 45.343, 59.778 28, 69.373 28 C 71.627 28, 71.919 28.288, 71.147 29.750 C 69.527 32.820, 67.801 43.073, 68.461 45.703 C 69.044 48.024, 69.699 47.375, 76.120 38.106 C 79.982 32.532, 82.991 27.193, 82.808 26.243 C 82.320 23.709, 77.301 21.505, 75.472 23.023 C 74.367 23.940, 72.998 23.846, 69.346 22.602 C 63.748 20.695, 60.738 20.645, 55.882 22.381" stroke="none" fill="#a4c4b2" fill-rule="evenodd"/></svg>